# AST/ASF file generated using VICON BodyLanguage
# -----------------------------------------------
:version 1.10
:name VICON
:units
  mass 1.0
  length 0.45
  angle deg
:documentation
   .ast/.asf automatically generated from VICON data using
   VICON BodyBuilder and BodyLanguage model FoxedUp or BRILLIANT.MOD
:root
   order TX TY TZ RX RY RZ
   axis XYZ
   position 0 0 0  
   orientation 0 0 0 
:bonedata
  begin
     id 1 
     name lhipjoint
     direction 0.624716 -0.669793 0.401383 
     length 2.38238 
     axis 0 0 0  XYZ
  end
  begin
     id 2 
     name lfemur
     direction 0.34202 -0.939693 0  
     length 6.4574  
     axis 0 0 20  XYZ
    dof rx ry rz
    limits (-160.0 20.0)
           (-70.0 70.0)
           (-60.0 70.0)
  end
  begin
     id 3 
     name ltibia
     direction 0.34202 -0.939693 0   
     length 7.68739   
     axis 0 0 20   XYZ
    dof rx
    limits (-10.0 170.0)
  end
  begin
     id 4 
     name lfoot
     direction 0.0681309 -0.187188 0.979959   
     length 2.46615   
     axis -90 7.62852e-016 20   XYZ
    dof rx rz
    limits (-45.0 90.0)
           (-70.0 20.0)
  end
  begin
     id 5 
     name ltoes
     direction 1.53566e-011 -4.21819e-011 1   
     length 1.2376   
     axis -90 7.62852e-016 20   XYZ
    dof rx
    limits (-90.0 20.0)
  end
  begin
     id 6 
     name rhipjoint
     direction -0.644473 -0.655875 0.393043   
     length 2.43293  
     axis 0 0 0  XYZ 
  end
  begin
     id 7 
     name rfemur
     direction -0.34202 -0.939693 0   
     length 6.7025   
     axis 0 0 -20   XYZ
    dof rx ry rz
    limits (-160.0 20.0)
           (-70.0 70.0)
           (-70.0 60.0)
  end
  begin
     id 8 
     name rtibia
     direction -0.34202 -0.939693 0   
     length 7.80547   
     axis 0 0 -20   XYZ
    dof rx
    limits (-10.0 170.0)
 end
 begin
     id 9 
     name rfoot
     direction -0.0756734 -0.207911 0.975216   
     length 2.40315  
     axis -90 -7.62852e-016 -20   XYZ
    dof rx rz
    limits (-45.0 90.0)
           (-20.0 70.0)
  end
  begin
     id 10 
     name rtoes
     direction -1.5353e-011 -4.21879e-011 1   
     length 1.20477   
     axis -90 -7.62852e-016 -20   XYZ
    dof rx
    limits (-90.0 20.0)
  end
  begin
     id 11 
     name lowerback
     direction 0.0160353 0.987463 -0.157037   
     length 2.18572   
     axis 0 0 0   XYZ
    dof rx ry rz
    limits (-20.0 45.0)
           (-30.0 30.0)
           (-30.0 30.0)
  end
  begin
     id 12 
     name upperback
     direction -0.00499661 0.999756 0.0215076   
     length 2.18016   
     axis 0 0 0   XYZ
    dof rx ry rz
    limits (-20.0 45.0)
           (-30.0 30.0)
           (-30.0 30.0)
  end
  begin
     id 13 
     name thorax
     direction -0.00921346 0.995333 0.0960619   
     length 2.24923   
     axis 0 0 0   XYZ
    dof rx ry rz
    limits (-20.0 45.0)
           (-30.0 30.0)
           (-30.0 30.0)
  end
  begin
     id 14 
     name lowerneck
     direction 0.0274184 0.991181 0.12965   
     length 1.70911   
     axis 0 0 0   XYZ
    dof rx ry rz
    limits (-20.0 45.0)
           (-30.0 30.0)
           (-30.0 30.0)
  end
  begin
     id 15 
     name upperneck
     direction 0.0015627 0.999959 -0.00893559   
     length 1.69312   
     axis 0 0 0   XYZ
    dof rx ry rz
    limits (-20.0 45.0)
           (-30.0 30.0)
           (-30.0 30.0)
  end
  begin
     id 16
     name head
     direction -0.00230242 0.999856 -0.0168327  
     length 1.80241  
     axis 0 0 0   XYZ
    dof rx ry rz
    limits (-20.0 45.0)
           (-30.0 30.0)
           (-30.0 30.0)
  end
  begin
     id 17 
     name lclavicle
     direction 0.955523 0.290741 -0.0494489  
     length 3.84275  
     axis 0 0 0   XYZ
    dof ry rz
    limits (-20.0 10.0)
           (0.0 20.0)
  end
  begin
     id 18 
     name lhumerus
     direction 1 -4.48967e-011 -3.18382e-028   
     length 5.17714   
     axis 180 -30 -90   XYZ
    dof rx ry rz
    limits (-60.0 90.0)
           (-90.0 90.0)
           (-90.0 90.0)
  end
  begin
     id 19
     name lradius
     direction 1 -4.48968e-011 -2.22911e-027   
     length 3.43679   
     axis 180 -30 -90   XYZ
    dof rx
    limits (-10.0 170.0)
  end
  begin
     id 20
     name lwrist
     direction 1 -4.48951e-011 -6.32245e-027   
     length 1.7184   
     axis 3.57107e-015 90 90   XYZ
    dof ry
    limits (-180.0 0.0)
 end
  begin
     id 21 
     name lhand
     direction 1 -4.48924e-011 -1.26431e-026   
     length 0.573117   
     axis 8.06912e-015 90 90   XYZ
    dof rx rz
    limits (-90.0 90.0)
           (-45.0 45.0)
  end
  begin
     id 22 
     name lfingers
     direction 1 -4.49001e-011 -2.52965e-026   
     length 0.462062   
     axis 1.61381e-014 90 90   XYZ
    dof rx
    limits (0.0 90.0)
  end
  begin
     id 23
     name lthumb
     direction 0.707107 -6.35008e-011 0.707107   
     length 0.663431   
     axis -90 45 -1.62303e-014   XYZ
    dof rx rz
    limits (-45.0 45.0)
           (-45.0 45.0)
  end
  begin
     id 24 
     name rclavicle
     direction -0.963917 0.256881 -0.0698287   
     length 3.73057  
     axis 0 0 0   XYZ 
    dof ry rz
    limits (-10.0 20.0)
           (-20.0 0.0)
  end
  begin
     id 25 
     name rhumerus
     direction -1 -4.48962e-011 -2.73982e-027  
     length 5.23908   
     axis 180 30 90   XYZ
    dof rx ry rz
    limits (-90.0 60.0)
           (-90.0 90.0)
           (-90.0 90.0)
  end
  begin
     id 26 
     name rradius
     direction -1 -4.48968e-011 -4.33218e-027   
     length 3.46485   
     axis 180 30 90   XYZ
    dof rx
    limits (-10.0 170.0)
  end
  begin
     id 27 
     name rwrist
     direction -1 -4.48989e-011 -6.32372e-027   
     length 1.73243   
     axis 3.57107e-015 -90 -90   XYZ
    dof ry
    limits (-180.0 0.0)
  end
  begin
     id 28
     name rhand
     direction -1 -4.48948e-011 -1.26448e-026   
     length 0.608752   
     axis 8.06912e-015 -90 -90   XYZ
    dof rx rz
    limits (-90.0 90.0)
           (-45.0 45.0)
  end
  begin
     id 29
     name rfingers
     direction -1 -4.48962e-011 -2.52913e-026   
     length 0.490792   
     axis 1.61381e-014 -90 -90   XYZ
    dof rx
    limits (0.0 90.0)
  end
  begin
     id 30
     name rthumb
     direction -0.707107 -6.34878e-011 0.707107   
     length 0.704682   
     axis -90 -45 1.62303e-014   XYZ
    dof rx rz
    limits (-45.0 45.0)
           (-45.0 45.0)
  end
:hierarchy
  begin
    root lhipjoint rhipjoint lowerback
    lhipjoint lfemur
    lfemur ltibia
    ltibia lfoot
    lfoot ltoes
    rhipjoint rfemur
    rfemur rtibia
    rtibia rfoot
    rfoot rtoes
    lowerback upperback
    upperback thorax
    thorax lowerneck lclavicle rclavicle
    lowerneck upperneck
    upperneck head
    lclavicle lhumerus
    lhumerus lradius
    lradius lwrist
    lwrist lhand lthumb
    lhand lfingers
    rclavicle rhumerus
    rhumerus rradius
    rradius rwrist
    rwrist rhand rthumb
    rhand rfingers
  end

#!OML:ASF G:\JayActor3\Patient Classification 1\Patient 1\Session 6\male.ASF
:FULLY-SPECIFIED
:DEGREES
427
root 24.8639 15.9892 -4.97056 170.824 -52.8087 -175.727
lowerback 1.2289 1.51173 9.17542
upperback 7.88292 0.863483 4.56762
thorax 7.77873 0.606644 -0.267019
lowerneck 7.66723 -2.91933 0.511517
upperneck -8.62212 -4.17278 -2.54796
head -4.29201 -1.97475 -0.689103
rclavicle 9.62118e-014 2.54444e-014
rhumerus -19.1096 9.69525 -78.5736
rradius 35.6139
rwrist 3.51769
rhand -19.2179 -9.8777
rfingers 7.12502
rthumb 7.09478 -39.7388
lclavicle 9.62118e-014 2.54444e-014
lhumerus -45.1127 15.8509 71.9801
lradius 22.8785
lwrist 26.2996
lhand -11.1558 12.9249
lfingers 7.12502
lthumb 14.8704 42.3712
rfemur 10.5281 -3.43158 27.0591
rtibia 23.9852
rfoot -28.2025 -10.2331
rtoes 5.73411
lfemur -24.7301 12.0444 -20.2741
ltibia 32.6434
lfoot -13.7676 2.73463
ltoes -16.8276
428
root 24.7718 15.9645 -5.04534 170.626 -52.0838 -175.284
lowerback 1.3228 1.65771 9.27835
upperback 7.83656 1.07455 4.54455
thorax 7.69409 0.714912 -0.338769
lowerneck 7.73399 -2.82466 0.598279
upperneck -8.80965 -4.03991 -2.52424
head -4.37258 -1.91157 -0.70327
rclavicle 3.49861e-014 4.45278e-014
rhumerus -18.8236 10.528 -78.6635
rradius 36.4196
rwrist 3.3069
rhand -18.9959 -9.82182
rfingers 7.12502
rthumb 7.30915 -39.6756
lclavicle 3.49861e-014 4.45278e-014
lhumerus -45.5765 16.1974 71.8994
lradius 22.7915
lwrist 26.1888
lhand -11.0683 12.9028
lfingers 7.12502
lthumb 14.9547 42.3429
rfemur 10.9629 -3.35886 27.2711
rtibia 23.7223
rfoot -27.9911 -9.74077
rtoes 5.12061
lfemur -24.6127 11.1717 -19.6515
ltibia 31.4402
lfoot -14.1054 3.48231
ltoes -17.529
429
root 24.6794 15.939 -5.11941 170.401 -51.3642 -174.839
lowerback 1.43638 1.78494 9.38225
upperback 7.79583 1.26136 4.52262
thorax 7.60341 0.81055 -0.412188
lowerneck 7.80916 -2.7226 0.693286
upperneck -8.9993 -3.8954 -2.49715
head -4.45571 -1.84324 -0.718679
rclavicle 6.71892e-014 -6.99722e-014
rhumerus -18.5103 11.3307 -78.7562
rradius 37.1595
rwrist 3.14845
rhand -18.914 -9.78831
rfingers 7.12502
rthumb 7.3882 -39.6393
lclavicle 6.71892e-014 -6.99722e-014
lhumerus -46 16.5486 71.8237
lradius 22.6195
lwrist 26.1134
lhand -11.1859 12.8126
lfingers 7.12502
lthumb 14.8414 42.261
rfemur 11.4248 -3.29281 27.4721
rtibia 23.4728
rfoot -27.7652 -9.21149
rtoes 4.51805
lfemur -24.4778 10.3954 -18.9954
ltibia 30.5047
lfoot -14.3829 4.2668
ltoes -18.1625
430
root 24.5863 15.9128 -5.19361 170.156 -50.664 -174.4
lowerback 1.561 1.89035 9.4788
upperback 7.76077 1.41984 4.49744
thorax 7.51088 0.891593 -0.487348
lowerneck 7.88676 -2.61332 0.799193
upperneck -9.18612 -3.73878 -2.46566
head -4.53842 -1.76977 -0.735628
rclavicle 7.4743e-014 -1.90833e-014
rhumerus -18.1836 12.103 -78.8594
rradius 37.838
rwrist 3.03928
rhand -18.9989 -9.7705
rfingers 7.12502
rthumb 7.3062 -39.6244
lclavicle 7.4743e-014 -1.90833e-014
lhumerus -46.3782 16.9054 71.7401
lradius 22.3526
lwrist 26.0693
lhand -11.4788 12.6664
lfingers 7.12502
lthumb 14.5592 42.1355
rfemur 11.9165 -3.25036 27.6518
rtibia 23.2401
rfoot -27.5271 -8.63978
rtoes 3.92396
lfemur -24.3262 9.74561 -18.3366
ltibia 29.8311
lfoot -14.5773 4.94894
ltoes -18.6309
431
root 24.492 15.8859 -5.26889 169.903 -49.9916 -173.983
lowerback 1.68048 1.97189 9.55318
upperback 7.73371 1.54589 4.46672
thorax 7.42708 0.955765 -0.558115
lowerneck 7.95519 -2.49724 0.910359
upperneck -9.36207 -3.57103 -2.42965
head -4.61522 -1.69167 -0.753176
rclavicle 2.24627e-014 9.06458e-014
rhumerus -17.8506 12.8347 -78.977
rradius 38.4568
rwrist 2.9907
rhand -19.2356 -9.76361
rfingers 7.12502
rthumb 7.07769 -39.6253
lclavicle 2.24627e-014 9.06458e-014
lhumerus -46.706 17.2898 71.6281
lradius 21.9816
lwrist 26.0361
lhand -11.8927 12.4963
lfingers 7.12502
lthumb 14.1604 41.9937
rfemur 12.4405 -3.23631 27.8001
rtibia 23.0247
rfoot -27.2738 -8.0298
rtoes 3.34419
lfemur -24.1527 9.23102 -17.7036
ltibia 29.4154
lfoot -14.6314 5.39237
ltoes -18.6859
432
root 24.3956 15.8598 -5.34586 169.678 -49.3514 -173.631
lowerback 1.78323 2.03334 9.57998
upperback 7.71278 1.6459 4.42075
thorax 7.3555 1.00578 -0.620057
lowerneck 8.01695 -2.37796 1.03065
upperneck -9.53281 -3.39669 -2.38874
head -4.6888 -1.61132 -0.771529
rclavicle 8.28932e-014 6.36111e-015
rhumerus -17.5318 13.5024 -79.1133
rradius 39.0225
rwrist 3.00825
rhand -19.5963 -9.73674
rfingers 7.12502
rthumb 6.72956 -39.6098
lclavicle 8.28932e-014 6.36111e-015
lhumerus -46.9844 17.7104 71.4652
lradius 21.4995
lwrist 25.9911
lhand -12.3653 12.336
lfingers 7.12502
lthumb 13.7049 41.8647
rfemur 12.9975 -3.25971 27.8783
rtibia 22.824
rfoot -26.9917 -7.38073
rtoes 2.74542
lfemur -23.9437 8.83089 -17.134
ltibia 29.2596
lfoot -14.5158 5.57172
ltoes -18.2455
433
root 24.2977 15.8355 -5.4248 169.484 -48.7317 -173.33
lowerback 1.85559 2.08038 9.56802
upperback 7.6936 1.72573 4.36233
thorax 7.29992 1.04517 -0.674163
lowerneck 8.03413 -2.25425 1.1328
upperneck -10.0471 -3.2299 -2.40259
head -4.38125 -1.52324 -0.721802
rclavicle -4.6118e-014 -1.27222e-014
rhumerus -17.241 14.0886 -79.2741
rradius 39.5463
rwrist 3.09132
rhand -20.0556 -9.69859
rfingers 7.12502
rthumb 6.28614 -39.5853
lclavicle -4.6118e-014 -1.27222e-014
lhumerus -47.2113 18.1872 71.2324
lradius 20.9043
lwrist 25.9087
lhand -12.8311 12.2092
lfingers 7.12502
lthumb 13.256 41.7676
rfemur 13.5665 -3.28484 27.9116
rtibia 22.6389
rfoot -26.6768 -6.71764
rtoes 2.13913
lfemur -23.7093 8.52648 -16.6176
ltibia 29.3647
lfoot -14.261 5.48025
ltoes -17.0653
434
root 24.1979 15.8144 -5.5057 169.346 -48.1309 -173.096
lowerback 1.88403 2.11777 9.51033
upperback 7.67357 1.79147 4.28739
thorax 7.2653 1.07716 -0.720052
lowerneck 8.10987 -2.13341 1.26491
upperneck -10.2621 -3.05275 -2.36186
head -4.45778 -1.44234 -0.739883
rclavicle 2.82274e-014 2.06736e-014
rhumerus -16.9874 14.5699 -79.4642
rradius 40.0318
rwrist 3.23841
rhand -20.5841 -9.64007
rfingers 7.12502
rthumb 5.77592 -39.5413
lclavicle 2.82274e-014 2.06736e-014
lhumerus -47.3824 18.7222 70.9219
lradius 20.1993
lwrist 25.7733
lhand -13.2356 12.131
lfingers 7.12502
lthumb 12.866 41.7145
rfemur 14.13 -3.28794 27.8955
rtibia 22.4747
rfoot -26.3263 -6.06505
rtoes 1.50513
lfemur -23.4628 8.31089 -16.1708
ltibia 29.7189
lfoot -13.9409 5.24553
ltoes -15.5837
435
root 24.0965 15.7978 -5.5882 169.278 -47.5299 -172.925
lowerback 1.8636 2.1531 9.41485
upperback 7.6453 1.85382 4.19529
thorax 7.24772 1.10753 -0.762041
lowerneck 8.20063 -2.01409 1.4089
upperneck -10.5076 -2.87824 -2.33366
head -4.54656 -1.36289 -0.76359
rclavicle 6.40087e-014 -1.01778e-013
rhumerus -16.7838 14.9356 -79.6912
rradius 40.4868
rwrist 3.43689
rhand -21.1576 -9.57583
rfingers 7.12502
rthumb 5.22221 -39.4915
lclavicle 6.40087e-014 -1.01778e-013
lhumerus -47.4972 19.3197 70.5266
lradius 19.3939
lwrist 25.5604
lhand -13.5504 12.1257
lfingers 7.12502
lthumb 12.5626 41.728
rfemur 14.6536 -3.23253 27.8447
rtibia 22.3475
rfoot -25.9371 -5.43902
rtoes 0.858008
lfemur -23.2357 8.20039 -15.7893
ltibia 30.2841
lfoot -13.6076 4.97019
ltoes -13.9687
436
root 23.9936 15.7861 -5.67174 169.274 -46.9392 -172.803
lowerback 1.79594 2.18528 9.29658
upperback 7.60941 1.91094 4.08621
thorax 7.24774 1.13618 -0.80814
lowerneck 8.3042 -1.8946 1.55763
upperneck -10.7933 -2.7038 -2.30535
head -4.64979 -1.28426 -0.78811
rclavicle 1.96797e-014 1.145e-013
rhumerus -16.6308 15.1713 -79.9593
rradius 40.916
rwrist 3.6676
rhand -21.7626 -9.50124
rfingers 7.12502
rthumb 4.63801 -39.4305
lclavicle 1.96797e-014 1.145e-013
lhumerus -47.5423 19.9899 70.0384
lradius 18.4907
lwrist 25.2218
lhand -13.7547 12.1897
lfingers 7.12502
lthumb 12.3657 41.804
rfemur 15.1161 -3.10075 27.7831
rtibia 22.2773
rfoot -25.5171 -4.86911
rtoes 0.217639
lfemur -23.0512 8.19072 -15.4624
ltibia 30.995
lfoot -13.3027 4.75745
ltoes -12.5059
437
root 23.8895 15.7796 -5.75588 169.341 -46.3674 -172.738
lowerback 1.69047 2.21288 9.15046
upperback 7.56032 1.9636 3.9583
thorax 7.25354 1.16295 -0.857936
lowerneck 8.42147 -1.7729 1.70289
upperneck -11.1105 -2.52653 -2.27121
head -4.76484 -1.20512 -0.810653
rclavicle 2.5842e-015 -1.07344e-013
rhumerus -16.5398 15.2768 -80.2731
rradius 41.32
rwrist 3.90098
rhand -22.3767 -9.40108
rfingers 7.12502
rthumb 4.04503 -39.3424
lclavicle 2.5842e-015 -1.07344e-013
lhumerus -47.5197 20.7328 69.4549
lradius 17.5032
lwrist 24.7102
lhand -13.8485 12.3256
lfingers 7.12502
lthumb 12.2752 41.9454
rfemur 15.4997 -2.89145 27.7063
rtibia 22.2861
rfoot -25.0685 -4.36064
rtoes -0.396563
lfemur -22.9204 8.2791 -15.1947
ltibia 31.7708
lfoot -13.0469 4.66438
ltoes -11.4133
438
root 23.7844 15.7784 -5.8402 169.456 -45.8188 -172.711
lowerback 1.5678 2.2359 8.9927
upperback 7.49931 2.01307 3.81352
thorax 7.25582 1.18876 -0.918831
lowerneck 8.53443 -1.64978 1.84034
upperneck -11.4433 -2.3469 -2.22439
head -4.88368 -1.12623 -0.828617
rclavicle 5.50634e-014 8.34896e-014
rhumerus -16.516 15.2555 -80.6326
rradius 41.7048
rwrist 4.11156
rhand -23.0012 -9.29303
rfingers 7.12502
rthumb 3.44195 -39.245
lclavicle 5.50634e-014 8.34896e-014
lhumerus -47.4301 21.5315 68.7895
lradius 16.4656
lwrist 23.9954
lhand -13.8417 12.5223
lfingers 7.12502
lthumb 12.2818 42.1417
rfemur 15.7997 -2.61156 27.6313
rtibia 22.3925
rfoot -24.5933 -3.92807
rtoes -1.03678
lfemur -22.8344 8.44679 -14.9638
ltibia 32.535
lfoot -12.8405 4.70895
ltoes -10.7936
439
root 23.6787 15.7824 -5.9245 169.595 -45.2853 -172.701
lowerback 1.43894 2.25858 8.84361
upperback 7.42891 2.06439 3.65579
thorax 7.25271 1.21676 -0.997762
lowerneck 8.62862 -1.52561 1.96257
upperneck -11.7702 -2.16576 -2.16334
head -4.9973 -1.04789 -0.840391
rclavicle -4.37326e-015 -5.64548e-014
rhumerus -16.5612 15.1179 -81.0319
rradius 42.0748
rwrist 4.27223
rhand -23.6231 -9.1861
rfingers 7.12502
rthumb 2.8414 -39.1469
lclavicle -4.37326e-015 -5.64548e-014
lhumerus -47.2708 22.3948 68.039
lradius 15.3983
lwrist 23.0221
lhand -13.741 12.7814
lfingers 7.12502
lthumb 12.3788 42.3949
rfemur 16.0088 -2.27944 27.5673
rtibia 22.6147
rfoot -24.078 -3.57618
rtoes -1.75445
lfemur -22.7703 8.68197 -14.7481
ltibia 33.2301
lfoot -12.659 4.81118
ltoes -10.3077
